<svg width="512" height="512" viewBox="0 0 512 512" fill="none" xmlns="http://www.w3.org/2000/svg">
    <circle cx="256" cy="256" r="256" fill="#FB923C"/>
    <path d="M293.591 110.091H328.818V318.045C328.818 336.606 325.409 352.373 318.591 365.347C311.773 378.32 302.161 388.169 289.756 394.892C277.35 401.616 262.72 404.977 245.864 404.977C229.955 404.977 215.797 402.089 203.392 396.312C190.987 390.441 181.233 382.108 174.131 371.312C167.028 360.517 163.477 347.686 163.477 332.818H198.136C198.136 341.057 200.172 348.254 204.244 354.409C208.411 360.47 214.093 365.205 221.29 368.614C228.487 372.023 236.678 373.727 245.864 373.727C255.996 373.727 264.614 371.597 271.716 367.335C278.818 363.074 284.216 356.824 287.909 348.585C291.697 340.252 293.591 330.072 293.591 318.045V110.091Z" fill="#0F172A"/>
</svg>
