<?xml version="1.0" standalone="no"?>
<!DOCTYPE svg PUBLIC "-//W3C//DTD SVG 20010904//EN"
 "http://www.w3.org/TR/2001/REC-SVG-20010904/DTD/svg10.dtd">
<svg version="1.0" xmlns="http://www.w3.org/2000/svg"
 width="700.000000pt" height="700.000000pt" viewBox="0 0 700.000000 700.000000"
 preserveAspectRatio="xMidYMid meet">
<metadata>
Created by potrace 1.14, written by Peter Selinger 2001-2017
</metadata>
<g transform="translate(0.000000,700.000000) scale(0.100000,-0.100000)"
fill="#000000" stroke="none">
<path d="M4007 3988 c-3 -1364 -5 -1519 -20 -1579 -86 -347 -285 -509 -624
-509 -140 0 -231 19 -340 71 -180 86 -282 229 -308 432 l-6 47 -241 0 -241 0
7 -87 c18 -240 109 -439 273 -599 217 -212 529 -315 908 -301 221 9 366 42
518 118 286 145 455 379 538 744 l23 100 3 1538 4 1537 -245 0 -245 0 -4
-1512z"/>
</g>
</svg>
